<?xml version="1.0" encoding="UTF-8" standalone="no"?>
<!-- Created with Inkscape (http://www.inkscape.org/) -->

<svg
   width="152.28851"
   height="183.80487"
   viewBox="0 0 152.28852 183.80487"
   version="1.1"
   id="svg1"
   xml:space="preserve"
   xmlns="http://www.w3.org/2000/svg"
   xmlns:svg="http://www.w3.org/2000/svg"><defs
     id="defs1" /><g
     id="g107"
     transform="translate(-1784.4075,-744.85112)"
     style="display:inline"><path
       id="path105"
       style="font-variation-settings:normal;opacity:1;vector-effect:none;fill:#32363f;fill-opacity:1;stroke:none;stroke-width:1.00157;stroke-linecap:butt;stroke-linejoin:miter;stroke-miterlimit:4;stroke-dasharray:none;stroke-dashoffset:0;stroke-opacity:1;-inkscape-stroke:none;stop-color:#000000"
       d="m 1784.4075,744.85114 h 43.3371 c 20.25,0 29.4577,15.87408 29.4577,25.41202 v 26.39285 h -59.6955 c -8.575,0 -13.0993,-4.01664 -13.0993,-13.35056 z" /><path
       id="path106"
       style="font-variation-settings:normal;opacity:1;vector-effect:none;fill:#32363f;fill-opacity:1;stroke:none;stroke-width:1.00157;stroke-linecap:butt;stroke-linejoin:miter;stroke-miterlimit:4;stroke-dasharray:none;stroke-dashoffset:0;stroke-opacity:1;-inkscape-stroke:none;stop-color:#000000"
       d="m 1784.4075,810.85114 h 43.3371 c 20.25,0 29.4577,15.87408 29.4577,25.41202 v 26.39285 h -59.6955 c -8.575,0 -13.0993,-4.01664 -13.0993,-13.35056 z" /><path
       id="path107"
       style="font-variation-settings:normal;opacity:1;fill:#3dd68c;fill-opacity:1;stroke:none;stroke-width:1.00133;stroke-linecap:butt;stroke-linejoin:miter;stroke-miterlimit:4;stroke-dasharray:none;stroke-dashoffset:0;stroke-opacity:1;stop-color:#000000"
       d="m 1784.4075,876.85114 c 0,0 24.5484,0.32791 40.4104,-1.2052 25.2158,-2.43718 69.4524,-12.41591 82.4204,-12.41591 20.25,0 29.4577,15.87408 29.4577,25.41202 v 26.39285 c 0,0 -25.637,0.0401 -37.1671,0.70769 -26.5915,1.53961 -57.0332,12.91342 -102.0221,12.91342 -8.575,0 -13.0993,-4.01664 -13.0993,-13.35056 z" /></g></svg>
